#!OML:ASF H:\Terrain\Patient Classification 1\Animal2\Wednesday\Animal2.ASF
:FULLY-SPECIFIED
:DEGREES
3540
root 19.685 17.9391 -15.6022 192.535 -196.221 -179.861
lowerback 11.3553 -1.31617 5.55877
upperback -1.27234 -0.863764 1.3788
thorax -7.81336 -0.62458 -1.51432
lowerneck -4.01643 5.63888 14.5023
upperneck 28.7539 8.96863 -10.5518
head 11.0522 4.64447 -5.38314
rclavicle 1.76918e-014 -7.95139e-016
rhumerus -33.3014 -39.0614 2.99719
rradius 51.1817
rwrist -39.265
rhand -5.93634 0.217678
rfingers 7.12502
rthumb 19.8936 -28.7841
lclavicle 1.76918e-014 -7.95139e-016
lhumerus -37.5751 6.52508 7.48403
lradius 48.2986
lwrist 52.2669
lhand -0.623711 18.1329
lfingers 7.12502
lthumb 24.9928 46.5181
rfemur -19.3124 -8.72295 23.3034
rtibia 26.2115
rfoot -21.5019 -1.86858
rtoes 32.4289
lfemur -20.7737 -4.02358 -16.6835
ltibia 24.1016
lfoot -15.8002 -0.386885
ltoes -30.6688
3541
root 19.6822 17.9387 -15.6051 192.496 -196.227 -179.783
lowerback 11.4763 -1.32376 5.49186
upperback -1.23096 -0.87731 1.36347
thorax -7.83776 -0.628365 -1.48927
lowerneck -4.00851 5.61944 14.4676
upperneck 28.7513 8.95596 -10.5859
head 11.0468 4.63199 -5.39212
rclavicle -2.5842e-015 3.97569e-015
rhumerus -33.2455 -38.9002 2.93337
rradius 51.2238
rwrist -39.6187
rhand -5.37227 0.240906
rfingers 7.12502
rthumb 20.4357 -28.7037
lclavicle -2.5842e-015 3.97569e-015
lhumerus -37.4699 6.68336 7.43658
lradius 48.2444
lwrist 52.0176
lhand 0.136805 17.6816
lfingers 7.12502
lthumb 25.7214 45.9635
rfemur -19.2788 -8.77055 23.221
rtibia 26.2396
rfoot -21.4783 -1.81088
rtoes 32.6103
lfemur -20.7041 -3.97756 -16.7728
ltibia 24.0755
lfoot -15.8545 -0.56812
ltoes -30.4776
3542
root 19.6765 17.94 -15.6073 192.544 -196.279 -179.665
lowerback 11.5245 -1.37496 5.35999
upperback -1.19814 -0.963425 1.34544
thorax -7.83322 -0.664263 -1.4183
lowerneck -4.03356 5.65555 14.5715
upperneck 28.7143 9.03404 -10.7586
head 11.0634 4.66017 -5.46524
rclavicle 1.61016e-014 -7.95139e-016
rhumerus -32.9966 -38.9496 2.73557
rradius 51.2208
rwrist -39.6285
rhand -4.97483 0.258018
rfingers 7.12502
rthumb 20.8176 -28.6452
lclavicle 1.61016e-014 -7.95139e-016
lhumerus -37.413 6.72775 7.30632
lradius 48.2114
lwrist 51.9323
lhand 0.897859 17.767
lfingers 7.12502
lthumb 26.4501 45.9413
rfemur -19.343 -8.62674 23.1044
rtibia 26.3101
rfoot -21.4384 -1.83477
rtoes 33.4367
lfemur -20.7135 -3.99174 -16.8712
ltibia 24.0053
lfoot -15.7551 -0.73021
ltoes -29.9834
3543
root 19.6751 17.9419 -15.611 192.631 -196.308 -179.605
lowerback 11.4931 -1.41333 5.28993
upperback -1.17599 -1.02539 1.37204
thorax -7.79334 -0.689537 -1.34028
lowerneck -3.90283 5.6692 14.7015
upperneck 28.4352 9.09368 -10.9961
head 10.9571 4.67868 -5.56551
rclavicle 1.98785e-016 -7.15625e-015
rhumerus -32.6641 -38.9571 2.6054
rradius 51.1935
rwrist -39.7041
rhand -4.66972 0.181871
rfingers 7.12502
rthumb 21.1107 -28.6889
lclavicle 1.98785e-016 -7.15625e-015
lhumerus -37.37 6.69095 7.2557
lradius 48.2578
lwrist 52.1003
lhand 1.01647 17.9546
lfingers 7.12502
lthumb 26.5636 46.1118
rfemur -19.4757 -8.64174 23.0516
rtibia 26.385
rfoot -21.3521 -1.66116
rtoes 34.3505
lfemur -20.7698 -4.03036 -16.9197
ltibia 23.9254
lfoot -15.5392 -0.64615
ltoes -30.0666
3544
root 19.6743 17.9416 -15.613 192.713 -196.288 -179.561
lowerback 11.434 -1.41301 5.22921
upperback -1.1485 -1.03757 1.38725
thorax -7.72895 -0.690867 -1.28948
lowerneck -3.82645 5.66734 14.7798
upperneck 28.2387 9.09694 -11.0876
head 10.8757 4.6793 -5.60894
rclavicle -1.53064e-014 2.22639e-014
rhumerus -32.477 -38.8531 2.55543
rradius 51.241
rwrist -39.8604
rhand -4.53478 0.232498
rfingers 7.12502
rthumb 21.2403 -28.6237
lclavicle -1.53064e-014 2.22639e-014
lhumerus -37.3111 6.57682 7.22848
lradius 48.4199
lwrist 52.3321
lhand 0.887856 17.7615
lfingers 7.12502
lthumb 26.4405 45.9373
rfemur -19.6022 -8.6995 23.0205
rtibia 26.4491
rfoot -21.3657 -1.54769
rtoes 34.3712
lfemur -20.8141 -4.05051 -16.9646
ltibia 23.854
lfoot -15.4999 -0.467438
ltoes -30.5416
